<mxfile host="app.diagrams.net" modified="2023-10-26T08:13:11.099Z" agent="Mozilla/5.0 (Windows NT 10.0; Win64; x64; rv:109.0) Gecko/20100101 Firefox/115.0" etag="ulTBM0asclJrofDhz7dz" version="22.0.8" type="device">
  <diagram name="1 oldal" id="dpjXXV6aqlacYk7j9VG9">
    <mxGraphModel dx="934" dy="866" grid="1" gridSize="10" guides="1" tooltips="1" connect="1" arrows="1" fold="1" page="1" pageScale="1" pageWidth="827" pageHeight="1169" math="0" shadow="0">
      <root>
        <mxCell id="0" />
        <mxCell id="1" parent="0" />
        <mxCell id="1Bhlo9oKJ-6xgey1GEtK-1" value="" style="whiteSpace=wrap;html=1;aspect=fixed;" parent="1" vertex="1">
          <mxGeometry x="40" y="268" width="792" height="792" as="geometry" />
        </mxCell>
        <mxCell id="1Bhlo9oKJ-6xgey1GEtK-124" value="" style="rounded=0;whiteSpace=wrap;html=1;fontSize=14;" parent="1" vertex="1">
          <mxGeometry x="40" y="268" width="790" height="91" as="geometry" />
        </mxCell>
        <mxCell id="1Bhlo9oKJ-6xgey1GEtK-125" value="hirolvaso" style="text;html=1;strokeColor=none;fillColor=none;align=center;verticalAlign=middle;whiteSpace=wrap;rounded=0;fontSize=14;" parent="1" vertex="1">
          <mxGeometry x="389" y="270" width="99" height="28" as="geometry" />
        </mxCell>
        <mxCell id="1Bhlo9oKJ-6xgey1GEtK-126" value="Search" style="rounded=0;whiteSpace=wrap;html=1;fontSize=14;" parent="1" vertex="1">
          <mxGeometry x="695" y="330" width="135" height="29" as="geometry" />
        </mxCell>
        <mxCell id="1Bhlo9oKJ-6xgey1GEtK-127" value="Menü pontok" style="rounded=0;whiteSpace=wrap;html=1;fontSize=14;" parent="1" vertex="1">
          <mxGeometry x="40" y="334" width="400" height="25" as="geometry" />
        </mxCell>
        <mxCell id="1Bhlo9oKJ-6xgey1GEtK-128" value="log out" style="rounded=0;whiteSpace=wrap;html=1;fontSize=14;" parent="1" vertex="1">
          <mxGeometry x="699" y="270" width="131" height="14" as="geometry" />
        </mxCell>
        <mxCell id="1Bhlo9oKJ-6xgey1GEtK-129" value="adminisztartor" style="rounded=0;whiteSpace=wrap;html=1;fontSize=14;" parent="1" vertex="1">
          <mxGeometry x="40" y="269" width="88" height="31" as="geometry" />
        </mxCell>
        <mxCell id="1Bhlo9oKJ-6xgey1GEtK-130" value="hirszerkesztő" style="rounded=0;whiteSpace=wrap;html=1;fontSize=14;" parent="1" vertex="1">
          <mxGeometry x="128" y="269" width="88" height="31" as="geometry" />
        </mxCell>
        <mxCell id="1Bhlo9oKJ-6xgey1GEtK-133" value="hirolvaso" style="rounded=0;whiteSpace=wrap;html=1;fontSize=14;" parent="1" vertex="1">
          <mxGeometry x="216" y="269" width="94" height="32" as="geometry" />
        </mxCell>
        <mxCell id="7-HeJF2qWF5bApz_e-Zq-28" value="" style="shape=partialRectangle;html=1;whiteSpace=wrap;connectable=0;strokeColor=inherit;overflow=hidden;fillColor=none;top=0;left=0;bottom=0;right=0;pointerEvents=1;fontSize=13;" vertex="1" parent="1">
          <mxGeometry x="495" y="421" width="65" height="51" as="geometry">
            <mxRectangle width="65" height="51" as="alternateBounds" />
          </mxGeometry>
        </mxCell>
        <mxCell id="7-HeJF2qWF5bApz_e-Zq-29" value="" style="shape=partialRectangle;html=1;whiteSpace=wrap;connectable=0;strokeColor=inherit;overflow=hidden;fillColor=none;top=0;left=0;bottom=0;right=0;pointerEvents=1;fontSize=13;" vertex="1" parent="1">
          <mxGeometry x="495" y="472" width="65" height="51" as="geometry">
            <mxRectangle width="65" height="51" as="alternateBounds" />
          </mxGeometry>
        </mxCell>
        <mxCell id="7-HeJF2qWF5bApz_e-Zq-50" value="&lt;div style=&quot;font-size: 14px;&quot; align=&quot;left&quot;&gt;&lt;font style=&quot;font-size: 14px;&quot;&gt;Jelenlegi karakterek szama&lt;/font&gt;&lt;/div&gt;" style="rounded=0;whiteSpace=wrap;html=1;align=left;fontSize=14;" vertex="1" parent="1">
          <mxGeometry x="40" y="359" width="790" height="31" as="geometry" />
        </mxCell>
        <mxCell id="1Bhlo9oKJ-6xgey1GEtK-147" value="nyomtatás" style="rounded=0;whiteSpace=wrap;html=1;fillColor=#0000FF;fontColor=#FFFFFF;fontSize=14;" parent="1" vertex="1">
          <mxGeometry x="730" y="359" width="100" height="31" as="geometry" />
        </mxCell>
        <mxCell id="1Bhlo9oKJ-6xgey1GEtK-2" value="" style="shape=table;startSize=0;container=1;collapsible=0;childLayout=tableLayout;fontSize=13;" parent="1" vertex="1">
          <mxGeometry x="40" y="420" width="587" height="560" as="geometry" />
        </mxCell>
        <mxCell id="1Bhlo9oKJ-6xgey1GEtK-3" value="" style="shape=tableRow;horizontal=0;startSize=0;swimlaneHead=0;swimlaneBody=0;strokeColor=inherit;top=0;left=0;bottom=0;right=0;collapsible=0;dropTarget=0;fillColor=none;points=[[0,0.5],[1,0.5]];portConstraint=eastwest;fontSize=13;" parent="1Bhlo9oKJ-6xgey1GEtK-2" vertex="1">
          <mxGeometry width="587" height="51" as="geometry" />
        </mxCell>
        <mxCell id="1Bhlo9oKJ-6xgey1GEtK-4" value="ID" style="shape=partialRectangle;html=1;whiteSpace=wrap;connectable=0;strokeColor=inherit;overflow=hidden;fillColor=none;top=0;left=0;bottom=0;right=0;pointerEvents=1;fontSize=13;" parent="1Bhlo9oKJ-6xgey1GEtK-3" vertex="1">
          <mxGeometry width="73" height="51" as="geometry">
            <mxRectangle width="73" height="51" as="alternateBounds" />
          </mxGeometry>
        </mxCell>
        <mxCell id="1Bhlo9oKJ-6xgey1GEtK-5" value="&#xa;hír címe&#xa;&#xa;" style="shape=partialRectangle;html=1;whiteSpace=wrap;connectable=0;strokeColor=inherit;overflow=hidden;fillColor=none;top=0;left=0;bottom=0;right=0;pointerEvents=1;fontSize=13;" parent="1Bhlo9oKJ-6xgey1GEtK-3" vertex="1">
          <mxGeometry x="73" width="74" height="51" as="geometry">
            <mxRectangle width="74" height="51" as="alternateBounds" />
          </mxGeometry>
        </mxCell>
        <mxCell id="1Bhlo9oKJ-6xgey1GEtK-6" value="szöveget" style="shape=partialRectangle;html=1;whiteSpace=wrap;connectable=0;strokeColor=inherit;overflow=hidden;fillColor=none;top=0;left=0;bottom=0;right=0;pointerEvents=1;fontSize=13;" parent="1Bhlo9oKJ-6xgey1GEtK-3" vertex="1">
          <mxGeometry x="147" width="73" height="51" as="geometry">
            <mxRectangle width="73" height="51" as="alternateBounds" />
          </mxGeometry>
        </mxCell>
        <mxCell id="1Bhlo9oKJ-6xgey1GEtK-7" value="felolvasások száma" style="shape=partialRectangle;html=1;whiteSpace=wrap;connectable=0;strokeColor=inherit;overflow=hidden;fillColor=none;top=0;left=0;bottom=0;right=0;pointerEvents=1;fontSize=13;" parent="1Bhlo9oKJ-6xgey1GEtK-3" vertex="1">
          <mxGeometry x="220" width="73" height="51" as="geometry">
            <mxRectangle width="73" height="51" as="alternateBounds" />
          </mxGeometry>
        </mxCell>
        <mxCell id="1Bhlo9oKJ-6xgey1GEtK-8" value="lejárat ideje" style="shape=partialRectangle;html=1;whiteSpace=wrap;connectable=0;strokeColor=inherit;overflow=hidden;fillColor=none;top=0;left=0;bottom=0;right=0;pointerEvents=1;fontSize=13;" parent="1Bhlo9oKJ-6xgey1GEtK-3" vertex="1">
          <mxGeometry x="293" width="74" height="51" as="geometry">
            <mxRectangle width="74" height="51" as="alternateBounds" />
          </mxGeometry>
        </mxCell>
        <mxCell id="1Bhlo9oKJ-6xgey1GEtK-9" value="hírszerzők neve" style="shape=partialRectangle;html=1;whiteSpace=wrap;connectable=0;strokeColor=inherit;overflow=hidden;fillColor=none;top=0;left=0;bottom=0;right=0;pointerEvents=1;fontSize=13;" parent="1Bhlo9oKJ-6xgey1GEtK-3" vertex="1">
          <mxGeometry x="367" width="73" height="51" as="geometry">
            <mxRectangle width="73" height="51" as="alternateBounds" />
          </mxGeometry>
        </mxCell>
        <mxCell id="1Bhlo9oKJ-6xgey1GEtK-10" value="&#xa;törlés&#xa;&#xa;" style="shape=partialRectangle;html=1;whiteSpace=wrap;connectable=0;strokeColor=inherit;overflow=hidden;fillColor=none;top=0;left=0;bottom=0;right=0;pointerEvents=1;fontSize=13;" parent="1Bhlo9oKJ-6xgey1GEtK-3" vertex="1">
          <mxGeometry x="440" width="73" height="51" as="geometry">
            <mxRectangle width="73" height="51" as="alternateBounds" />
          </mxGeometry>
        </mxCell>
        <mxCell id="1Bhlo9oKJ-6xgey1GEtK-11" value="felolvasasra foladva" style="shape=partialRectangle;html=1;whiteSpace=wrap;connectable=0;strokeColor=inherit;overflow=hidden;fillColor=none;top=0;left=0;bottom=0;right=0;pointerEvents=1;fontSize=13;" parent="1Bhlo9oKJ-6xgey1GEtK-3" vertex="1">
          <mxGeometry x="513" width="74" height="51" as="geometry">
            <mxRectangle width="74" height="51" as="alternateBounds" />
          </mxGeometry>
        </mxCell>
        <mxCell id="1Bhlo9oKJ-6xgey1GEtK-14" value="" style="shape=tableRow;horizontal=0;startSize=0;swimlaneHead=0;swimlaneBody=0;strokeColor=inherit;top=0;left=0;bottom=0;right=0;collapsible=0;dropTarget=0;fillColor=none;points=[[0,0.5],[1,0.5]];portConstraint=eastwest;fontSize=13;" parent="1Bhlo9oKJ-6xgey1GEtK-2" vertex="1">
          <mxGeometry y="51" width="587" height="51" as="geometry" />
        </mxCell>
        <mxCell id="1Bhlo9oKJ-6xgey1GEtK-15" value="1 elem" style="shape=partialRectangle;html=1;whiteSpace=wrap;connectable=0;strokeColor=inherit;overflow=hidden;fillColor=none;top=0;left=0;bottom=0;right=0;pointerEvents=1;fontSize=13;" parent="1Bhlo9oKJ-6xgey1GEtK-14" vertex="1">
          <mxGeometry width="73" height="51" as="geometry">
            <mxRectangle width="73" height="51" as="alternateBounds" />
          </mxGeometry>
        </mxCell>
        <mxCell id="1Bhlo9oKJ-6xgey1GEtK-16" style="shape=partialRectangle;html=1;whiteSpace=wrap;connectable=0;strokeColor=inherit;overflow=hidden;fillColor=none;top=0;left=0;bottom=0;right=0;pointerEvents=1;fontSize=13;" parent="1Bhlo9oKJ-6xgey1GEtK-14" vertex="1">
          <mxGeometry x="73" width="74" height="51" as="geometry">
            <mxRectangle width="74" height="51" as="alternateBounds" />
          </mxGeometry>
        </mxCell>
        <mxCell id="1Bhlo9oKJ-6xgey1GEtK-17" style="shape=partialRectangle;html=1;whiteSpace=wrap;connectable=0;strokeColor=inherit;overflow=hidden;fillColor=none;top=0;left=0;bottom=0;right=0;pointerEvents=1;fontSize=13;" parent="1Bhlo9oKJ-6xgey1GEtK-14" vertex="1">
          <mxGeometry x="147" width="73" height="51" as="geometry">
            <mxRectangle width="73" height="51" as="alternateBounds" />
          </mxGeometry>
        </mxCell>
        <mxCell id="1Bhlo9oKJ-6xgey1GEtK-18" style="shape=partialRectangle;html=1;whiteSpace=wrap;connectable=0;strokeColor=inherit;overflow=hidden;fillColor=none;top=0;left=0;bottom=0;right=0;pointerEvents=1;fontSize=13;" parent="1Bhlo9oKJ-6xgey1GEtK-14" vertex="1">
          <mxGeometry x="220" width="73" height="51" as="geometry">
            <mxRectangle width="73" height="51" as="alternateBounds" />
          </mxGeometry>
        </mxCell>
        <mxCell id="1Bhlo9oKJ-6xgey1GEtK-19" style="shape=partialRectangle;html=1;whiteSpace=wrap;connectable=0;strokeColor=inherit;overflow=hidden;fillColor=none;top=0;left=0;bottom=0;right=0;pointerEvents=1;fontSize=13;" parent="1Bhlo9oKJ-6xgey1GEtK-14" vertex="1">
          <mxGeometry x="293" width="74" height="51" as="geometry">
            <mxRectangle width="74" height="51" as="alternateBounds" />
          </mxGeometry>
        </mxCell>
        <mxCell id="1Bhlo9oKJ-6xgey1GEtK-20" style="shape=partialRectangle;html=1;whiteSpace=wrap;connectable=0;strokeColor=inherit;overflow=hidden;fillColor=none;top=0;left=0;bottom=0;right=0;pointerEvents=1;fontSize=13;" parent="1Bhlo9oKJ-6xgey1GEtK-14" vertex="1">
          <mxGeometry x="367" width="73" height="51" as="geometry">
            <mxRectangle width="73" height="51" as="alternateBounds" />
          </mxGeometry>
        </mxCell>
        <mxCell id="1Bhlo9oKJ-6xgey1GEtK-21" value="🚫" style="shape=partialRectangle;html=1;whiteSpace=wrap;connectable=0;strokeColor=inherit;overflow=hidden;fillColor=none;top=0;left=0;bottom=0;right=0;pointerEvents=1;fontSize=13;" parent="1Bhlo9oKJ-6xgey1GEtK-14" vertex="1">
          <mxGeometry x="440" width="73" height="51" as="geometry">
            <mxRectangle width="73" height="51" as="alternateBounds" />
          </mxGeometry>
        </mxCell>
        <mxCell id="1Bhlo9oKJ-6xgey1GEtK-22" value="" style="shape=partialRectangle;html=1;whiteSpace=wrap;connectable=0;strokeColor=inherit;overflow=hidden;fillColor=none;top=0;left=0;bottom=0;right=0;pointerEvents=1;fontSize=13;" parent="1Bhlo9oKJ-6xgey1GEtK-14" vertex="1">
          <mxGeometry x="513" width="74" height="51" as="geometry">
            <mxRectangle width="74" height="51" as="alternateBounds" />
          </mxGeometry>
        </mxCell>
        <mxCell id="1Bhlo9oKJ-6xgey1GEtK-25" value="" style="shape=tableRow;horizontal=0;startSize=0;swimlaneHead=0;swimlaneBody=0;strokeColor=inherit;top=0;left=0;bottom=0;right=0;collapsible=0;dropTarget=0;fillColor=none;points=[[0,0.5],[1,0.5]];portConstraint=eastwest;fontSize=13;" parent="1Bhlo9oKJ-6xgey1GEtK-2" vertex="1">
          <mxGeometry y="102" width="587" height="51" as="geometry" />
        </mxCell>
        <mxCell id="1Bhlo9oKJ-6xgey1GEtK-26" value="2 elem" style="shape=partialRectangle;html=1;whiteSpace=wrap;connectable=0;strokeColor=inherit;overflow=hidden;fillColor=none;top=0;left=0;bottom=0;right=0;pointerEvents=1;fontSize=13;" parent="1Bhlo9oKJ-6xgey1GEtK-25" vertex="1">
          <mxGeometry width="73" height="51" as="geometry">
            <mxRectangle width="73" height="51" as="alternateBounds" />
          </mxGeometry>
        </mxCell>
        <mxCell id="1Bhlo9oKJ-6xgey1GEtK-27" style="shape=partialRectangle;html=1;whiteSpace=wrap;connectable=0;strokeColor=inherit;overflow=hidden;fillColor=none;top=0;left=0;bottom=0;right=0;pointerEvents=1;fontSize=13;" parent="1Bhlo9oKJ-6xgey1GEtK-25" vertex="1">
          <mxGeometry x="73" width="74" height="51" as="geometry">
            <mxRectangle width="74" height="51" as="alternateBounds" />
          </mxGeometry>
        </mxCell>
        <mxCell id="1Bhlo9oKJ-6xgey1GEtK-28" style="shape=partialRectangle;html=1;whiteSpace=wrap;connectable=0;strokeColor=inherit;overflow=hidden;fillColor=none;top=0;left=0;bottom=0;right=0;pointerEvents=1;fontSize=13;" parent="1Bhlo9oKJ-6xgey1GEtK-25" vertex="1">
          <mxGeometry x="147" width="73" height="51" as="geometry">
            <mxRectangle width="73" height="51" as="alternateBounds" />
          </mxGeometry>
        </mxCell>
        <mxCell id="1Bhlo9oKJ-6xgey1GEtK-29" style="shape=partialRectangle;html=1;whiteSpace=wrap;connectable=0;strokeColor=inherit;overflow=hidden;fillColor=none;top=0;left=0;bottom=0;right=0;pointerEvents=1;fontSize=13;" parent="1Bhlo9oKJ-6xgey1GEtK-25" vertex="1">
          <mxGeometry x="220" width="73" height="51" as="geometry">
            <mxRectangle width="73" height="51" as="alternateBounds" />
          </mxGeometry>
        </mxCell>
        <mxCell id="1Bhlo9oKJ-6xgey1GEtK-30" style="shape=partialRectangle;html=1;whiteSpace=wrap;connectable=0;strokeColor=inherit;overflow=hidden;fillColor=none;top=0;left=0;bottom=0;right=0;pointerEvents=1;fontSize=13;" parent="1Bhlo9oKJ-6xgey1GEtK-25" vertex="1">
          <mxGeometry x="293" width="74" height="51" as="geometry">
            <mxRectangle width="74" height="51" as="alternateBounds" />
          </mxGeometry>
        </mxCell>
        <mxCell id="1Bhlo9oKJ-6xgey1GEtK-31" style="shape=partialRectangle;html=1;whiteSpace=wrap;connectable=0;strokeColor=inherit;overflow=hidden;fillColor=none;top=0;left=0;bottom=0;right=0;pointerEvents=1;fontSize=13;" parent="1Bhlo9oKJ-6xgey1GEtK-25" vertex="1">
          <mxGeometry x="367" width="73" height="51" as="geometry">
            <mxRectangle width="73" height="51" as="alternateBounds" />
          </mxGeometry>
        </mxCell>
        <mxCell id="1Bhlo9oKJ-6xgey1GEtK-32" value="🚫" style="shape=partialRectangle;html=1;whiteSpace=wrap;connectable=0;strokeColor=inherit;overflow=hidden;fillColor=none;top=0;left=0;bottom=0;right=0;pointerEvents=1;fontSize=13;" parent="1Bhlo9oKJ-6xgey1GEtK-25" vertex="1">
          <mxGeometry x="440" width="73" height="51" as="geometry">
            <mxRectangle width="73" height="51" as="alternateBounds" />
          </mxGeometry>
        </mxCell>
        <mxCell id="1Bhlo9oKJ-6xgey1GEtK-33" value="" style="shape=partialRectangle;html=1;whiteSpace=wrap;connectable=0;strokeColor=inherit;overflow=hidden;fillColor=none;top=0;left=0;bottom=0;right=0;pointerEvents=1;fontSize=13;" parent="1Bhlo9oKJ-6xgey1GEtK-25" vertex="1">
          <mxGeometry x="513" width="74" height="51" as="geometry">
            <mxRectangle width="74" height="51" as="alternateBounds" />
          </mxGeometry>
        </mxCell>
        <mxCell id="1Bhlo9oKJ-6xgey1GEtK-36" style="shape=tableRow;horizontal=0;startSize=0;swimlaneHead=0;swimlaneBody=0;strokeColor=inherit;top=0;left=0;bottom=0;right=0;collapsible=0;dropTarget=0;fillColor=none;points=[[0,0.5],[1,0.5]];portConstraint=eastwest;fontSize=13;" parent="1Bhlo9oKJ-6xgey1GEtK-2" vertex="1">
          <mxGeometry y="153" width="587" height="51" as="geometry" />
        </mxCell>
        <mxCell id="1Bhlo9oKJ-6xgey1GEtK-37" value="3 elem" style="shape=partialRectangle;html=1;whiteSpace=wrap;connectable=0;strokeColor=inherit;overflow=hidden;fillColor=none;top=0;left=0;bottom=0;right=0;pointerEvents=1;fontSize=13;" parent="1Bhlo9oKJ-6xgey1GEtK-36" vertex="1">
          <mxGeometry width="73" height="51" as="geometry">
            <mxRectangle width="73" height="51" as="alternateBounds" />
          </mxGeometry>
        </mxCell>
        <mxCell id="1Bhlo9oKJ-6xgey1GEtK-38" style="shape=partialRectangle;html=1;whiteSpace=wrap;connectable=0;strokeColor=inherit;overflow=hidden;fillColor=none;top=0;left=0;bottom=0;right=0;pointerEvents=1;fontSize=13;" parent="1Bhlo9oKJ-6xgey1GEtK-36" vertex="1">
          <mxGeometry x="73" width="74" height="51" as="geometry">
            <mxRectangle width="74" height="51" as="alternateBounds" />
          </mxGeometry>
        </mxCell>
        <mxCell id="1Bhlo9oKJ-6xgey1GEtK-39" style="shape=partialRectangle;html=1;whiteSpace=wrap;connectable=0;strokeColor=inherit;overflow=hidden;fillColor=none;top=0;left=0;bottom=0;right=0;pointerEvents=1;fontSize=13;" parent="1Bhlo9oKJ-6xgey1GEtK-36" vertex="1">
          <mxGeometry x="147" width="73" height="51" as="geometry">
            <mxRectangle width="73" height="51" as="alternateBounds" />
          </mxGeometry>
        </mxCell>
        <mxCell id="1Bhlo9oKJ-6xgey1GEtK-40" style="shape=partialRectangle;html=1;whiteSpace=wrap;connectable=0;strokeColor=inherit;overflow=hidden;fillColor=none;top=0;left=0;bottom=0;right=0;pointerEvents=1;fontSize=13;" parent="1Bhlo9oKJ-6xgey1GEtK-36" vertex="1">
          <mxGeometry x="220" width="73" height="51" as="geometry">
            <mxRectangle width="73" height="51" as="alternateBounds" />
          </mxGeometry>
        </mxCell>
        <mxCell id="1Bhlo9oKJ-6xgey1GEtK-41" style="shape=partialRectangle;html=1;whiteSpace=wrap;connectable=0;strokeColor=inherit;overflow=hidden;fillColor=none;top=0;left=0;bottom=0;right=0;pointerEvents=1;fontSize=13;" parent="1Bhlo9oKJ-6xgey1GEtK-36" vertex="1">
          <mxGeometry x="293" width="74" height="51" as="geometry">
            <mxRectangle width="74" height="51" as="alternateBounds" />
          </mxGeometry>
        </mxCell>
        <mxCell id="1Bhlo9oKJ-6xgey1GEtK-42" style="shape=partialRectangle;html=1;whiteSpace=wrap;connectable=0;strokeColor=inherit;overflow=hidden;fillColor=none;top=0;left=0;bottom=0;right=0;pointerEvents=1;fontSize=13;" parent="1Bhlo9oKJ-6xgey1GEtK-36" vertex="1">
          <mxGeometry x="367" width="73" height="51" as="geometry">
            <mxRectangle width="73" height="51" as="alternateBounds" />
          </mxGeometry>
        </mxCell>
        <mxCell id="1Bhlo9oKJ-6xgey1GEtK-43" value="🚫" style="shape=partialRectangle;html=1;whiteSpace=wrap;connectable=0;strokeColor=inherit;overflow=hidden;fillColor=none;top=0;left=0;bottom=0;right=0;pointerEvents=1;fontSize=13;" parent="1Bhlo9oKJ-6xgey1GEtK-36" vertex="1">
          <mxGeometry x="440" width="73" height="51" as="geometry">
            <mxRectangle width="73" height="51" as="alternateBounds" />
          </mxGeometry>
        </mxCell>
        <mxCell id="1Bhlo9oKJ-6xgey1GEtK-44" value="" style="shape=partialRectangle;html=1;whiteSpace=wrap;connectable=0;strokeColor=inherit;overflow=hidden;fillColor=none;top=0;left=0;bottom=0;right=0;pointerEvents=1;fontSize=13;" parent="1Bhlo9oKJ-6xgey1GEtK-36" vertex="1">
          <mxGeometry x="513" width="74" height="51" as="geometry">
            <mxRectangle width="74" height="51" as="alternateBounds" />
          </mxGeometry>
        </mxCell>
        <mxCell id="1Bhlo9oKJ-6xgey1GEtK-47" style="shape=tableRow;horizontal=0;startSize=0;swimlaneHead=0;swimlaneBody=0;strokeColor=inherit;top=0;left=0;bottom=0;right=0;collapsible=0;dropTarget=0;fillColor=none;points=[[0,0.5],[1,0.5]];portConstraint=eastwest;fontSize=13;" parent="1Bhlo9oKJ-6xgey1GEtK-2" vertex="1">
          <mxGeometry y="204" width="587" height="51" as="geometry" />
        </mxCell>
        <mxCell id="1Bhlo9oKJ-6xgey1GEtK-48" value="4 elem" style="shape=partialRectangle;html=1;whiteSpace=wrap;connectable=0;strokeColor=inherit;overflow=hidden;fillColor=none;top=0;left=0;bottom=0;right=0;pointerEvents=1;fontSize=13;" parent="1Bhlo9oKJ-6xgey1GEtK-47" vertex="1">
          <mxGeometry width="73" height="51" as="geometry">
            <mxRectangle width="73" height="51" as="alternateBounds" />
          </mxGeometry>
        </mxCell>
        <mxCell id="1Bhlo9oKJ-6xgey1GEtK-49" style="shape=partialRectangle;html=1;whiteSpace=wrap;connectable=0;strokeColor=inherit;overflow=hidden;fillColor=none;top=0;left=0;bottom=0;right=0;pointerEvents=1;fontSize=13;" parent="1Bhlo9oKJ-6xgey1GEtK-47" vertex="1">
          <mxGeometry x="73" width="74" height="51" as="geometry">
            <mxRectangle width="74" height="51" as="alternateBounds" />
          </mxGeometry>
        </mxCell>
        <mxCell id="1Bhlo9oKJ-6xgey1GEtK-50" style="shape=partialRectangle;html=1;whiteSpace=wrap;connectable=0;strokeColor=inherit;overflow=hidden;fillColor=none;top=0;left=0;bottom=0;right=0;pointerEvents=1;fontSize=13;" parent="1Bhlo9oKJ-6xgey1GEtK-47" vertex="1">
          <mxGeometry x="147" width="73" height="51" as="geometry">
            <mxRectangle width="73" height="51" as="alternateBounds" />
          </mxGeometry>
        </mxCell>
        <mxCell id="1Bhlo9oKJ-6xgey1GEtK-51" style="shape=partialRectangle;html=1;whiteSpace=wrap;connectable=0;strokeColor=inherit;overflow=hidden;fillColor=none;top=0;left=0;bottom=0;right=0;pointerEvents=1;fontSize=13;" parent="1Bhlo9oKJ-6xgey1GEtK-47" vertex="1">
          <mxGeometry x="220" width="73" height="51" as="geometry">
            <mxRectangle width="73" height="51" as="alternateBounds" />
          </mxGeometry>
        </mxCell>
        <mxCell id="1Bhlo9oKJ-6xgey1GEtK-52" style="shape=partialRectangle;html=1;whiteSpace=wrap;connectable=0;strokeColor=inherit;overflow=hidden;fillColor=none;top=0;left=0;bottom=0;right=0;pointerEvents=1;fontSize=13;" parent="1Bhlo9oKJ-6xgey1GEtK-47" vertex="1">
          <mxGeometry x="293" width="74" height="51" as="geometry">
            <mxRectangle width="74" height="51" as="alternateBounds" />
          </mxGeometry>
        </mxCell>
        <mxCell id="1Bhlo9oKJ-6xgey1GEtK-53" style="shape=partialRectangle;html=1;whiteSpace=wrap;connectable=0;strokeColor=inherit;overflow=hidden;fillColor=none;top=0;left=0;bottom=0;right=0;pointerEvents=1;fontSize=13;" parent="1Bhlo9oKJ-6xgey1GEtK-47" vertex="1">
          <mxGeometry x="367" width="73" height="51" as="geometry">
            <mxRectangle width="73" height="51" as="alternateBounds" />
          </mxGeometry>
        </mxCell>
        <mxCell id="1Bhlo9oKJ-6xgey1GEtK-54" value="🚫" style="shape=partialRectangle;html=1;whiteSpace=wrap;connectable=0;strokeColor=inherit;overflow=hidden;fillColor=none;top=0;left=0;bottom=0;right=0;pointerEvents=1;fontSize=13;" parent="1Bhlo9oKJ-6xgey1GEtK-47" vertex="1">
          <mxGeometry x="440" width="73" height="51" as="geometry">
            <mxRectangle width="73" height="51" as="alternateBounds" />
          </mxGeometry>
        </mxCell>
        <mxCell id="1Bhlo9oKJ-6xgey1GEtK-55" value="" style="shape=partialRectangle;html=1;whiteSpace=wrap;connectable=0;strokeColor=inherit;overflow=hidden;fillColor=none;top=0;left=0;bottom=0;right=0;pointerEvents=1;fontSize=13;" parent="1Bhlo9oKJ-6xgey1GEtK-47" vertex="1">
          <mxGeometry x="513" width="74" height="51" as="geometry">
            <mxRectangle width="74" height="51" as="alternateBounds" />
          </mxGeometry>
        </mxCell>
        <mxCell id="1Bhlo9oKJ-6xgey1GEtK-58" style="shape=tableRow;horizontal=0;startSize=0;swimlaneHead=0;swimlaneBody=0;strokeColor=inherit;top=0;left=0;bottom=0;right=0;collapsible=0;dropTarget=0;fillColor=none;points=[[0,0.5],[1,0.5]];portConstraint=eastwest;fontSize=13;" parent="1Bhlo9oKJ-6xgey1GEtK-2" vertex="1">
          <mxGeometry y="255" width="587" height="49" as="geometry" />
        </mxCell>
        <mxCell id="1Bhlo9oKJ-6xgey1GEtK-59" value="5 elem" style="shape=partialRectangle;html=1;whiteSpace=wrap;connectable=0;strokeColor=inherit;overflow=hidden;fillColor=none;top=0;left=0;bottom=0;right=0;pointerEvents=1;fontSize=13;" parent="1Bhlo9oKJ-6xgey1GEtK-58" vertex="1">
          <mxGeometry width="73" height="49" as="geometry">
            <mxRectangle width="73" height="49" as="alternateBounds" />
          </mxGeometry>
        </mxCell>
        <mxCell id="1Bhlo9oKJ-6xgey1GEtK-60" style="shape=partialRectangle;html=1;whiteSpace=wrap;connectable=0;strokeColor=inherit;overflow=hidden;fillColor=none;top=0;left=0;bottom=0;right=0;pointerEvents=1;fontSize=13;" parent="1Bhlo9oKJ-6xgey1GEtK-58" vertex="1">
          <mxGeometry x="73" width="74" height="49" as="geometry">
            <mxRectangle width="74" height="49" as="alternateBounds" />
          </mxGeometry>
        </mxCell>
        <mxCell id="1Bhlo9oKJ-6xgey1GEtK-61" style="shape=partialRectangle;html=1;whiteSpace=wrap;connectable=0;strokeColor=inherit;overflow=hidden;fillColor=none;top=0;left=0;bottom=0;right=0;pointerEvents=1;fontSize=13;" parent="1Bhlo9oKJ-6xgey1GEtK-58" vertex="1">
          <mxGeometry x="147" width="73" height="49" as="geometry">
            <mxRectangle width="73" height="49" as="alternateBounds" />
          </mxGeometry>
        </mxCell>
        <mxCell id="1Bhlo9oKJ-6xgey1GEtK-62" style="shape=partialRectangle;html=1;whiteSpace=wrap;connectable=0;strokeColor=inherit;overflow=hidden;fillColor=none;top=0;left=0;bottom=0;right=0;pointerEvents=1;fontSize=13;" parent="1Bhlo9oKJ-6xgey1GEtK-58" vertex="1">
          <mxGeometry x="220" width="73" height="49" as="geometry">
            <mxRectangle width="73" height="49" as="alternateBounds" />
          </mxGeometry>
        </mxCell>
        <mxCell id="1Bhlo9oKJ-6xgey1GEtK-63" style="shape=partialRectangle;html=1;whiteSpace=wrap;connectable=0;strokeColor=inherit;overflow=hidden;fillColor=none;top=0;left=0;bottom=0;right=0;pointerEvents=1;fontSize=13;" parent="1Bhlo9oKJ-6xgey1GEtK-58" vertex="1">
          <mxGeometry x="293" width="74" height="49" as="geometry">
            <mxRectangle width="74" height="49" as="alternateBounds" />
          </mxGeometry>
        </mxCell>
        <mxCell id="1Bhlo9oKJ-6xgey1GEtK-64" style="shape=partialRectangle;html=1;whiteSpace=wrap;connectable=0;strokeColor=inherit;overflow=hidden;fillColor=none;top=0;left=0;bottom=0;right=0;pointerEvents=1;fontSize=13;" parent="1Bhlo9oKJ-6xgey1GEtK-58" vertex="1">
          <mxGeometry x="367" width="73" height="49" as="geometry">
            <mxRectangle width="73" height="49" as="alternateBounds" />
          </mxGeometry>
        </mxCell>
        <mxCell id="1Bhlo9oKJ-6xgey1GEtK-65" value="🚫" style="shape=partialRectangle;html=1;whiteSpace=wrap;connectable=0;strokeColor=inherit;overflow=hidden;fillColor=none;top=0;left=0;bottom=0;right=0;pointerEvents=1;fontSize=13;" parent="1Bhlo9oKJ-6xgey1GEtK-58" vertex="1">
          <mxGeometry x="440" width="73" height="49" as="geometry">
            <mxRectangle width="73" height="49" as="alternateBounds" />
          </mxGeometry>
        </mxCell>
        <mxCell id="1Bhlo9oKJ-6xgey1GEtK-66" value="" style="shape=partialRectangle;html=1;whiteSpace=wrap;connectable=0;strokeColor=inherit;overflow=hidden;fillColor=none;top=0;left=0;bottom=0;right=0;pointerEvents=1;fontSize=13;" parent="1Bhlo9oKJ-6xgey1GEtK-58" vertex="1">
          <mxGeometry x="513" width="74" height="49" as="geometry">
            <mxRectangle width="74" height="49" as="alternateBounds" />
          </mxGeometry>
        </mxCell>
        <mxCell id="1Bhlo9oKJ-6xgey1GEtK-69" style="shape=tableRow;horizontal=0;startSize=0;swimlaneHead=0;swimlaneBody=0;strokeColor=inherit;top=0;left=0;bottom=0;right=0;collapsible=0;dropTarget=0;fillColor=none;points=[[0,0.5],[1,0.5]];portConstraint=eastwest;fontSize=13;" parent="1Bhlo9oKJ-6xgey1GEtK-2" vertex="1">
          <mxGeometry y="304" width="587" height="52" as="geometry" />
        </mxCell>
        <mxCell id="1Bhlo9oKJ-6xgey1GEtK-70" value="6 elem" style="shape=partialRectangle;html=1;whiteSpace=wrap;connectable=0;strokeColor=inherit;overflow=hidden;fillColor=none;top=0;left=0;bottom=0;right=0;pointerEvents=1;fontSize=13;" parent="1Bhlo9oKJ-6xgey1GEtK-69" vertex="1">
          <mxGeometry width="73" height="52" as="geometry">
            <mxRectangle width="73" height="52" as="alternateBounds" />
          </mxGeometry>
        </mxCell>
        <mxCell id="1Bhlo9oKJ-6xgey1GEtK-71" style="shape=partialRectangle;html=1;whiteSpace=wrap;connectable=0;strokeColor=inherit;overflow=hidden;fillColor=none;top=0;left=0;bottom=0;right=0;pointerEvents=1;fontSize=13;" parent="1Bhlo9oKJ-6xgey1GEtK-69" vertex="1">
          <mxGeometry x="73" width="74" height="52" as="geometry">
            <mxRectangle width="74" height="52" as="alternateBounds" />
          </mxGeometry>
        </mxCell>
        <mxCell id="1Bhlo9oKJ-6xgey1GEtK-72" style="shape=partialRectangle;html=1;whiteSpace=wrap;connectable=0;strokeColor=inherit;overflow=hidden;fillColor=none;top=0;left=0;bottom=0;right=0;pointerEvents=1;fontSize=13;" parent="1Bhlo9oKJ-6xgey1GEtK-69" vertex="1">
          <mxGeometry x="147" width="73" height="52" as="geometry">
            <mxRectangle width="73" height="52" as="alternateBounds" />
          </mxGeometry>
        </mxCell>
        <mxCell id="1Bhlo9oKJ-6xgey1GEtK-73" style="shape=partialRectangle;html=1;whiteSpace=wrap;connectable=0;strokeColor=inherit;overflow=hidden;fillColor=none;top=0;left=0;bottom=0;right=0;pointerEvents=1;fontSize=13;" parent="1Bhlo9oKJ-6xgey1GEtK-69" vertex="1">
          <mxGeometry x="220" width="73" height="52" as="geometry">
            <mxRectangle width="73" height="52" as="alternateBounds" />
          </mxGeometry>
        </mxCell>
        <mxCell id="1Bhlo9oKJ-6xgey1GEtK-74" style="shape=partialRectangle;html=1;whiteSpace=wrap;connectable=0;strokeColor=inherit;overflow=hidden;fillColor=none;top=0;left=0;bottom=0;right=0;pointerEvents=1;fontSize=13;" parent="1Bhlo9oKJ-6xgey1GEtK-69" vertex="1">
          <mxGeometry x="293" width="74" height="52" as="geometry">
            <mxRectangle width="74" height="52" as="alternateBounds" />
          </mxGeometry>
        </mxCell>
        <mxCell id="1Bhlo9oKJ-6xgey1GEtK-75" style="shape=partialRectangle;html=1;whiteSpace=wrap;connectable=0;strokeColor=inherit;overflow=hidden;fillColor=none;top=0;left=0;bottom=0;right=0;pointerEvents=1;fontSize=13;" parent="1Bhlo9oKJ-6xgey1GEtK-69" vertex="1">
          <mxGeometry x="367" width="73" height="52" as="geometry">
            <mxRectangle width="73" height="52" as="alternateBounds" />
          </mxGeometry>
        </mxCell>
        <mxCell id="1Bhlo9oKJ-6xgey1GEtK-76" value="🚫" style="shape=partialRectangle;html=1;whiteSpace=wrap;connectable=0;strokeColor=inherit;overflow=hidden;fillColor=none;top=0;left=0;bottom=0;right=0;pointerEvents=1;fontSize=13;" parent="1Bhlo9oKJ-6xgey1GEtK-69" vertex="1">
          <mxGeometry x="440" width="73" height="52" as="geometry">
            <mxRectangle width="73" height="52" as="alternateBounds" />
          </mxGeometry>
        </mxCell>
        <mxCell id="1Bhlo9oKJ-6xgey1GEtK-77" value="" style="shape=partialRectangle;html=1;whiteSpace=wrap;connectable=0;strokeColor=inherit;overflow=hidden;fillColor=none;top=0;left=0;bottom=0;right=0;pointerEvents=1;fontSize=13;" parent="1Bhlo9oKJ-6xgey1GEtK-69" vertex="1">
          <mxGeometry x="513" width="74" height="52" as="geometry">
            <mxRectangle width="74" height="52" as="alternateBounds" />
          </mxGeometry>
        </mxCell>
        <mxCell id="1Bhlo9oKJ-6xgey1GEtK-80" style="shape=tableRow;horizontal=0;startSize=0;swimlaneHead=0;swimlaneBody=0;strokeColor=inherit;top=0;left=0;bottom=0;right=0;collapsible=0;dropTarget=0;fillColor=none;points=[[0,0.5],[1,0.5]];portConstraint=eastwest;fontSize=13;" parent="1Bhlo9oKJ-6xgey1GEtK-2" vertex="1">
          <mxGeometry y="356" width="587" height="51" as="geometry" />
        </mxCell>
        <mxCell id="1Bhlo9oKJ-6xgey1GEtK-81" value="7 elem" style="shape=partialRectangle;html=1;whiteSpace=wrap;connectable=0;strokeColor=inherit;overflow=hidden;fillColor=none;top=0;left=0;bottom=0;right=0;pointerEvents=1;fontSize=13;" parent="1Bhlo9oKJ-6xgey1GEtK-80" vertex="1">
          <mxGeometry width="73" height="51" as="geometry">
            <mxRectangle width="73" height="51" as="alternateBounds" />
          </mxGeometry>
        </mxCell>
        <mxCell id="1Bhlo9oKJ-6xgey1GEtK-82" style="shape=partialRectangle;html=1;whiteSpace=wrap;connectable=0;strokeColor=inherit;overflow=hidden;fillColor=none;top=0;left=0;bottom=0;right=0;pointerEvents=1;fontSize=13;" parent="1Bhlo9oKJ-6xgey1GEtK-80" vertex="1">
          <mxGeometry x="73" width="74" height="51" as="geometry">
            <mxRectangle width="74" height="51" as="alternateBounds" />
          </mxGeometry>
        </mxCell>
        <mxCell id="1Bhlo9oKJ-6xgey1GEtK-83" style="shape=partialRectangle;html=1;whiteSpace=wrap;connectable=0;strokeColor=inherit;overflow=hidden;fillColor=none;top=0;left=0;bottom=0;right=0;pointerEvents=1;fontSize=13;" parent="1Bhlo9oKJ-6xgey1GEtK-80" vertex="1">
          <mxGeometry x="147" width="73" height="51" as="geometry">
            <mxRectangle width="73" height="51" as="alternateBounds" />
          </mxGeometry>
        </mxCell>
        <mxCell id="1Bhlo9oKJ-6xgey1GEtK-84" style="shape=partialRectangle;html=1;whiteSpace=wrap;connectable=0;strokeColor=inherit;overflow=hidden;fillColor=none;top=0;left=0;bottom=0;right=0;pointerEvents=1;fontSize=13;" parent="1Bhlo9oKJ-6xgey1GEtK-80" vertex="1">
          <mxGeometry x="220" width="73" height="51" as="geometry">
            <mxRectangle width="73" height="51" as="alternateBounds" />
          </mxGeometry>
        </mxCell>
        <mxCell id="1Bhlo9oKJ-6xgey1GEtK-85" style="shape=partialRectangle;html=1;whiteSpace=wrap;connectable=0;strokeColor=inherit;overflow=hidden;fillColor=none;top=0;left=0;bottom=0;right=0;pointerEvents=1;fontSize=13;" parent="1Bhlo9oKJ-6xgey1GEtK-80" vertex="1">
          <mxGeometry x="293" width="74" height="51" as="geometry">
            <mxRectangle width="74" height="51" as="alternateBounds" />
          </mxGeometry>
        </mxCell>
        <mxCell id="1Bhlo9oKJ-6xgey1GEtK-86" style="shape=partialRectangle;html=1;whiteSpace=wrap;connectable=0;strokeColor=inherit;overflow=hidden;fillColor=none;top=0;left=0;bottom=0;right=0;pointerEvents=1;fontSize=13;" parent="1Bhlo9oKJ-6xgey1GEtK-80" vertex="1">
          <mxGeometry x="367" width="73" height="51" as="geometry">
            <mxRectangle width="73" height="51" as="alternateBounds" />
          </mxGeometry>
        </mxCell>
        <mxCell id="1Bhlo9oKJ-6xgey1GEtK-87" value="🚫" style="shape=partialRectangle;html=1;whiteSpace=wrap;connectable=0;strokeColor=inherit;overflow=hidden;fillColor=none;top=0;left=0;bottom=0;right=0;pointerEvents=1;fontSize=13;" parent="1Bhlo9oKJ-6xgey1GEtK-80" vertex="1">
          <mxGeometry x="440" width="73" height="51" as="geometry">
            <mxRectangle width="73" height="51" as="alternateBounds" />
          </mxGeometry>
        </mxCell>
        <mxCell id="1Bhlo9oKJ-6xgey1GEtK-88" value="" style="shape=partialRectangle;html=1;whiteSpace=wrap;connectable=0;strokeColor=inherit;overflow=hidden;fillColor=none;top=0;left=0;bottom=0;right=0;pointerEvents=1;fontSize=13;" parent="1Bhlo9oKJ-6xgey1GEtK-80" vertex="1">
          <mxGeometry x="513" width="74" height="51" as="geometry">
            <mxRectangle width="74" height="51" as="alternateBounds" />
          </mxGeometry>
        </mxCell>
        <mxCell id="1Bhlo9oKJ-6xgey1GEtK-91" style="shape=tableRow;horizontal=0;startSize=0;swimlaneHead=0;swimlaneBody=0;strokeColor=inherit;top=0;left=0;bottom=0;right=0;collapsible=0;dropTarget=0;fillColor=none;points=[[0,0.5],[1,0.5]];portConstraint=eastwest;fontSize=13;" parent="1Bhlo9oKJ-6xgey1GEtK-2" vertex="1">
          <mxGeometry y="407" width="587" height="51" as="geometry" />
        </mxCell>
        <mxCell id="1Bhlo9oKJ-6xgey1GEtK-92" value="8 elem" style="shape=partialRectangle;html=1;whiteSpace=wrap;connectable=0;strokeColor=inherit;overflow=hidden;fillColor=none;top=0;left=0;bottom=0;right=0;pointerEvents=1;fontSize=13;" parent="1Bhlo9oKJ-6xgey1GEtK-91" vertex="1">
          <mxGeometry width="73" height="51" as="geometry">
            <mxRectangle width="73" height="51" as="alternateBounds" />
          </mxGeometry>
        </mxCell>
        <mxCell id="1Bhlo9oKJ-6xgey1GEtK-93" style="shape=partialRectangle;html=1;whiteSpace=wrap;connectable=0;strokeColor=inherit;overflow=hidden;fillColor=none;top=0;left=0;bottom=0;right=0;pointerEvents=1;fontSize=13;" parent="1Bhlo9oKJ-6xgey1GEtK-91" vertex="1">
          <mxGeometry x="73" width="74" height="51" as="geometry">
            <mxRectangle width="74" height="51" as="alternateBounds" />
          </mxGeometry>
        </mxCell>
        <mxCell id="1Bhlo9oKJ-6xgey1GEtK-94" style="shape=partialRectangle;html=1;whiteSpace=wrap;connectable=0;strokeColor=inherit;overflow=hidden;fillColor=none;top=0;left=0;bottom=0;right=0;pointerEvents=1;fontSize=13;" parent="1Bhlo9oKJ-6xgey1GEtK-91" vertex="1">
          <mxGeometry x="147" width="73" height="51" as="geometry">
            <mxRectangle width="73" height="51" as="alternateBounds" />
          </mxGeometry>
        </mxCell>
        <mxCell id="1Bhlo9oKJ-6xgey1GEtK-95" style="shape=partialRectangle;html=1;whiteSpace=wrap;connectable=0;strokeColor=inherit;overflow=hidden;fillColor=none;top=0;left=0;bottom=0;right=0;pointerEvents=1;fontSize=13;" parent="1Bhlo9oKJ-6xgey1GEtK-91" vertex="1">
          <mxGeometry x="220" width="73" height="51" as="geometry">
            <mxRectangle width="73" height="51" as="alternateBounds" />
          </mxGeometry>
        </mxCell>
        <mxCell id="1Bhlo9oKJ-6xgey1GEtK-96" style="shape=partialRectangle;html=1;whiteSpace=wrap;connectable=0;strokeColor=inherit;overflow=hidden;fillColor=none;top=0;left=0;bottom=0;right=0;pointerEvents=1;fontSize=13;" parent="1Bhlo9oKJ-6xgey1GEtK-91" vertex="1">
          <mxGeometry x="293" width="74" height="51" as="geometry">
            <mxRectangle width="74" height="51" as="alternateBounds" />
          </mxGeometry>
        </mxCell>
        <mxCell id="1Bhlo9oKJ-6xgey1GEtK-97" style="shape=partialRectangle;html=1;whiteSpace=wrap;connectable=0;strokeColor=inherit;overflow=hidden;fillColor=none;top=0;left=0;bottom=0;right=0;pointerEvents=1;fontSize=13;" parent="1Bhlo9oKJ-6xgey1GEtK-91" vertex="1">
          <mxGeometry x="367" width="73" height="51" as="geometry">
            <mxRectangle width="73" height="51" as="alternateBounds" />
          </mxGeometry>
        </mxCell>
        <mxCell id="1Bhlo9oKJ-6xgey1GEtK-98" value="🚫" style="shape=partialRectangle;html=1;whiteSpace=wrap;connectable=0;strokeColor=inherit;overflow=hidden;fillColor=none;top=0;left=0;bottom=0;right=0;pointerEvents=1;fontSize=13;" parent="1Bhlo9oKJ-6xgey1GEtK-91" vertex="1">
          <mxGeometry x="440" width="73" height="51" as="geometry">
            <mxRectangle width="73" height="51" as="alternateBounds" />
          </mxGeometry>
        </mxCell>
        <mxCell id="1Bhlo9oKJ-6xgey1GEtK-99" value="" style="shape=partialRectangle;html=1;whiteSpace=wrap;connectable=0;strokeColor=inherit;overflow=hidden;fillColor=none;top=0;left=0;bottom=0;right=0;pointerEvents=1;fontSize=13;" parent="1Bhlo9oKJ-6xgey1GEtK-91" vertex="1">
          <mxGeometry x="513" width="74" height="51" as="geometry">
            <mxRectangle width="74" height="51" as="alternateBounds" />
          </mxGeometry>
        </mxCell>
        <mxCell id="1Bhlo9oKJ-6xgey1GEtK-102" style="shape=tableRow;horizontal=0;startSize=0;swimlaneHead=0;swimlaneBody=0;strokeColor=inherit;top=0;left=0;bottom=0;right=0;collapsible=0;dropTarget=0;fillColor=none;points=[[0,0.5],[1,0.5]];portConstraint=eastwest;fontSize=13;" parent="1Bhlo9oKJ-6xgey1GEtK-2" vertex="1">
          <mxGeometry y="458" width="587" height="51" as="geometry" />
        </mxCell>
        <mxCell id="1Bhlo9oKJ-6xgey1GEtK-103" value="9 elem" style="shape=partialRectangle;html=1;whiteSpace=wrap;connectable=0;strokeColor=inherit;overflow=hidden;fillColor=none;top=0;left=0;bottom=0;right=0;pointerEvents=1;fontSize=13;" parent="1Bhlo9oKJ-6xgey1GEtK-102" vertex="1">
          <mxGeometry width="73" height="51" as="geometry">
            <mxRectangle width="73" height="51" as="alternateBounds" />
          </mxGeometry>
        </mxCell>
        <mxCell id="1Bhlo9oKJ-6xgey1GEtK-104" style="shape=partialRectangle;html=1;whiteSpace=wrap;connectable=0;strokeColor=inherit;overflow=hidden;fillColor=none;top=0;left=0;bottom=0;right=0;pointerEvents=1;fontSize=13;" parent="1Bhlo9oKJ-6xgey1GEtK-102" vertex="1">
          <mxGeometry x="73" width="74" height="51" as="geometry">
            <mxRectangle width="74" height="51" as="alternateBounds" />
          </mxGeometry>
        </mxCell>
        <mxCell id="1Bhlo9oKJ-6xgey1GEtK-105" style="shape=partialRectangle;html=1;whiteSpace=wrap;connectable=0;strokeColor=inherit;overflow=hidden;fillColor=none;top=0;left=0;bottom=0;right=0;pointerEvents=1;fontSize=13;" parent="1Bhlo9oKJ-6xgey1GEtK-102" vertex="1">
          <mxGeometry x="147" width="73" height="51" as="geometry">
            <mxRectangle width="73" height="51" as="alternateBounds" />
          </mxGeometry>
        </mxCell>
        <mxCell id="1Bhlo9oKJ-6xgey1GEtK-106" style="shape=partialRectangle;html=1;whiteSpace=wrap;connectable=0;strokeColor=inherit;overflow=hidden;fillColor=none;top=0;left=0;bottom=0;right=0;pointerEvents=1;fontSize=13;" parent="1Bhlo9oKJ-6xgey1GEtK-102" vertex="1">
          <mxGeometry x="220" width="73" height="51" as="geometry">
            <mxRectangle width="73" height="51" as="alternateBounds" />
          </mxGeometry>
        </mxCell>
        <mxCell id="1Bhlo9oKJ-6xgey1GEtK-107" style="shape=partialRectangle;html=1;whiteSpace=wrap;connectable=0;strokeColor=inherit;overflow=hidden;fillColor=none;top=0;left=0;bottom=0;right=0;pointerEvents=1;fontSize=13;" parent="1Bhlo9oKJ-6xgey1GEtK-102" vertex="1">
          <mxGeometry x="293" width="74" height="51" as="geometry">
            <mxRectangle width="74" height="51" as="alternateBounds" />
          </mxGeometry>
        </mxCell>
        <mxCell id="1Bhlo9oKJ-6xgey1GEtK-108" style="shape=partialRectangle;html=1;whiteSpace=wrap;connectable=0;strokeColor=inherit;overflow=hidden;fillColor=none;top=0;left=0;bottom=0;right=0;pointerEvents=1;fontSize=13;" parent="1Bhlo9oKJ-6xgey1GEtK-102" vertex="1">
          <mxGeometry x="367" width="73" height="51" as="geometry">
            <mxRectangle width="73" height="51" as="alternateBounds" />
          </mxGeometry>
        </mxCell>
        <mxCell id="1Bhlo9oKJ-6xgey1GEtK-109" value="🚫" style="shape=partialRectangle;html=1;whiteSpace=wrap;connectable=0;strokeColor=inherit;overflow=hidden;fillColor=none;top=0;left=0;bottom=0;right=0;pointerEvents=1;fontSize=13;" parent="1Bhlo9oKJ-6xgey1GEtK-102" vertex="1">
          <mxGeometry x="440" width="73" height="51" as="geometry">
            <mxRectangle width="73" height="51" as="alternateBounds" />
          </mxGeometry>
        </mxCell>
        <mxCell id="1Bhlo9oKJ-6xgey1GEtK-110" value="" style="shape=partialRectangle;html=1;whiteSpace=wrap;connectable=0;strokeColor=inherit;overflow=hidden;fillColor=none;top=0;left=0;bottom=0;right=0;pointerEvents=1;fontSize=13;" parent="1Bhlo9oKJ-6xgey1GEtK-102" vertex="1">
          <mxGeometry x="513" width="74" height="51" as="geometry">
            <mxRectangle width="74" height="51" as="alternateBounds" />
          </mxGeometry>
        </mxCell>
        <mxCell id="1Bhlo9oKJ-6xgey1GEtK-113" style="shape=tableRow;horizontal=0;startSize=0;swimlaneHead=0;swimlaneBody=0;strokeColor=inherit;top=0;left=0;bottom=0;right=0;collapsible=0;dropTarget=0;fillColor=none;points=[[0,0.5],[1,0.5]];portConstraint=eastwest;fontSize=13;" parent="1Bhlo9oKJ-6xgey1GEtK-2" vertex="1">
          <mxGeometry y="509" width="587" height="51" as="geometry" />
        </mxCell>
        <mxCell id="1Bhlo9oKJ-6xgey1GEtK-114" value="10 elem" style="shape=partialRectangle;html=1;whiteSpace=wrap;connectable=0;strokeColor=inherit;overflow=hidden;fillColor=none;top=0;left=0;bottom=0;right=0;pointerEvents=1;fontSize=13;" parent="1Bhlo9oKJ-6xgey1GEtK-113" vertex="1">
          <mxGeometry width="73" height="51" as="geometry">
            <mxRectangle width="73" height="51" as="alternateBounds" />
          </mxGeometry>
        </mxCell>
        <mxCell id="1Bhlo9oKJ-6xgey1GEtK-115" style="shape=partialRectangle;html=1;whiteSpace=wrap;connectable=0;strokeColor=inherit;overflow=hidden;fillColor=none;top=0;left=0;bottom=0;right=0;pointerEvents=1;fontSize=13;" parent="1Bhlo9oKJ-6xgey1GEtK-113" vertex="1">
          <mxGeometry x="73" width="74" height="51" as="geometry">
            <mxRectangle width="74" height="51" as="alternateBounds" />
          </mxGeometry>
        </mxCell>
        <mxCell id="1Bhlo9oKJ-6xgey1GEtK-116" style="shape=partialRectangle;html=1;whiteSpace=wrap;connectable=0;strokeColor=inherit;overflow=hidden;fillColor=none;top=0;left=0;bottom=0;right=0;pointerEvents=1;fontSize=13;" parent="1Bhlo9oKJ-6xgey1GEtK-113" vertex="1">
          <mxGeometry x="147" width="73" height="51" as="geometry">
            <mxRectangle width="73" height="51" as="alternateBounds" />
          </mxGeometry>
        </mxCell>
        <mxCell id="1Bhlo9oKJ-6xgey1GEtK-117" style="shape=partialRectangle;html=1;whiteSpace=wrap;connectable=0;strokeColor=inherit;overflow=hidden;fillColor=none;top=0;left=0;bottom=0;right=0;pointerEvents=1;fontSize=13;" parent="1Bhlo9oKJ-6xgey1GEtK-113" vertex="1">
          <mxGeometry x="220" width="73" height="51" as="geometry">
            <mxRectangle width="73" height="51" as="alternateBounds" />
          </mxGeometry>
        </mxCell>
        <mxCell id="1Bhlo9oKJ-6xgey1GEtK-118" style="shape=partialRectangle;html=1;whiteSpace=wrap;connectable=0;strokeColor=inherit;overflow=hidden;fillColor=none;top=0;left=0;bottom=0;right=0;pointerEvents=1;fontSize=13;" parent="1Bhlo9oKJ-6xgey1GEtK-113" vertex="1">
          <mxGeometry x="293" width="74" height="51" as="geometry">
            <mxRectangle width="74" height="51" as="alternateBounds" />
          </mxGeometry>
        </mxCell>
        <mxCell id="1Bhlo9oKJ-6xgey1GEtK-119" style="shape=partialRectangle;html=1;whiteSpace=wrap;connectable=0;strokeColor=inherit;overflow=hidden;fillColor=none;top=0;left=0;bottom=0;right=0;pointerEvents=1;fontSize=13;" parent="1Bhlo9oKJ-6xgey1GEtK-113" vertex="1">
          <mxGeometry x="367" width="73" height="51" as="geometry">
            <mxRectangle width="73" height="51" as="alternateBounds" />
          </mxGeometry>
        </mxCell>
        <mxCell id="1Bhlo9oKJ-6xgey1GEtK-120" value="🚫" style="shape=partialRectangle;html=1;whiteSpace=wrap;connectable=0;strokeColor=inherit;overflow=hidden;fillColor=none;top=0;left=0;bottom=0;right=0;pointerEvents=1;fontSize=13;" parent="1Bhlo9oKJ-6xgey1GEtK-113" vertex="1">
          <mxGeometry x="440" width="73" height="51" as="geometry">
            <mxRectangle width="73" height="51" as="alternateBounds" />
          </mxGeometry>
        </mxCell>
        <mxCell id="1Bhlo9oKJ-6xgey1GEtK-121" value="" style="shape=partialRectangle;html=1;whiteSpace=wrap;connectable=0;strokeColor=inherit;overflow=hidden;fillColor=none;top=0;left=0;bottom=0;right=0;pointerEvents=1;fontSize=13;" parent="1Bhlo9oKJ-6xgey1GEtK-113" vertex="1">
          <mxGeometry x="513" width="74" height="51" as="geometry">
            <mxRectangle width="74" height="51" as="alternateBounds" />
          </mxGeometry>
        </mxCell>
        <mxCell id="7-HeJF2qWF5bApz_e-Zq-52" value="" style="ellipse;whiteSpace=wrap;html=1;aspect=fixed;fontSize=13;" vertex="1" parent="1">
          <mxGeometry x="580" y="488.63" width="17.75" height="17.75" as="geometry" />
        </mxCell>
        <mxCell id="7-HeJF2qWF5bApz_e-Zq-53" value="" style="ellipse;whiteSpace=wrap;html=1;aspect=fixed;fontSize=13;" vertex="1" parent="1">
          <mxGeometry x="580" y="540" width="17.75" height="17.75" as="geometry" />
        </mxCell>
        <mxCell id="7-HeJF2qWF5bApz_e-Zq-54" value="" style="ellipse;whiteSpace=wrap;html=1;aspect=fixed;fontSize=13;" vertex="1" parent="1">
          <mxGeometry x="580" y="590" width="17.75" height="17.75" as="geometry" />
        </mxCell>
        <mxCell id="7-HeJF2qWF5bApz_e-Zq-55" value="" style="ellipse;whiteSpace=wrap;html=1;aspect=fixed;fontSize=13;" vertex="1" parent="1">
          <mxGeometry x="580" y="640" width="17.75" height="17.75" as="geometry" />
        </mxCell>
        <mxCell id="7-HeJF2qWF5bApz_e-Zq-56" value="" style="ellipse;whiteSpace=wrap;html=1;aspect=fixed;fontSize=13;" vertex="1" parent="1">
          <mxGeometry x="580" y="691.13" width="17.75" height="17.75" as="geometry" />
        </mxCell>
        <mxCell id="7-HeJF2qWF5bApz_e-Zq-57" value="" style="ellipse;whiteSpace=wrap;html=1;aspect=fixed;fontSize=13;" vertex="1" parent="1">
          <mxGeometry x="580" y="740" width="17.75" height="17.75" as="geometry" />
        </mxCell>
        <mxCell id="7-HeJF2qWF5bApz_e-Zq-58" value="" style="ellipse;whiteSpace=wrap;html=1;aspect=fixed;fontSize=13;" vertex="1" parent="1">
          <mxGeometry x="580" y="790" width="17.75" height="17.75" as="geometry" />
        </mxCell>
        <mxCell id="7-HeJF2qWF5bApz_e-Zq-59" value="" style="ellipse;whiteSpace=wrap;html=1;aspect=fixed;fontSize=13;" vertex="1" parent="1">
          <mxGeometry x="580" y="840" width="17.75" height="17.75" as="geometry" />
        </mxCell>
        <mxCell id="7-HeJF2qWF5bApz_e-Zq-60" value="" style="ellipse;whiteSpace=wrap;html=1;aspect=fixed;fontSize=13;" vertex="1" parent="1">
          <mxGeometry x="580" y="890" width="17.75" height="17.75" as="geometry" />
        </mxCell>
        <mxCell id="7-HeJF2qWF5bApz_e-Zq-61" value="" style="ellipse;whiteSpace=wrap;html=1;aspect=fixed;fontSize=13;" vertex="1" parent="1">
          <mxGeometry x="580" y="940" width="17.75" height="17.75" as="geometry" />
        </mxCell>
      </root>
    </mxGraphModel>
  </diagram>
</mxfile>
